<svg width="167" height="34" fill="none" xmlns="http://www.w3.org/2000/svg"><path d="M20.65 30.197c-7.88 0-13.19-6.744-13.19-13.044 0-2.634.927-5.057 2.613-6.828 1.749-1.833 4.214-2.844 6.911-2.844a9.417 9.417 0 0 1 6.87 2.929c1.728 1.79 2.697 4.172 2.697 6.532h-1.854c0-3.666-3.098-7.607-7.713-7.607-4.446 0-7.67 3.287-7.67 7.818 0 4.678 3.94 11.168 11.316 11.168 7.839 0 11.484-6.827 11.484-11.463 0-3.435-1.496-7.165-3.982-9.988-2.023-2.297-5.585-5.016-11.106-5.016-9.356 0-15.172 7.84-15.172 15.088H0C.021 8.808 6.532 0 17.047 0 28.11 0 34.011 9.799 34.011 16.879c-.021 5.373-4.257 13.318-13.36 13.318z" fill="#49F0AC"/><path d="M20.714 33.864c-11.063 0-16.963-9.799-16.963-16.88 0-5.373 4.236-13.317 13.36-13.317 7.88 0 13.191 6.743 13.191 13.044 0 2.634-.927 5.057-2.613 6.827-1.749 1.834-4.214 2.845-6.912 2.845a9.417 9.417 0 0 1-6.87-2.93c-1.727-1.79-2.696-4.171-2.696-6.531h1.854c0 3.666 3.098 7.607 7.712 7.607 4.447 0 7.67-3.288 7.67-7.818 0-4.678-3.94-11.169-11.315-11.169-7.86-.02-11.506 6.828-11.506 11.443 0 3.434 1.497 7.164 3.983 9.988 2.023 2.297 5.584 5.015 11.105 5.015 9.356 0 15.172-7.839 15.172-15.088h1.855c0 8.177-6.512 16.964-17.027 16.964z" fill="#49F0AC"/><path d="M55.7 25.418c-2.018-1.052-3.622-2.504-4.813-4.407-1.139-1.853-1.708-3.957-1.708-6.26 0-2.304.57-4.407 1.708-6.26 1.139-1.853 2.743-3.306 4.814-4.407 2.018-1.052 4.347-1.603 6.883-1.603 2.537 0 4.814.55 6.832 1.603 2.019 1.051 3.623 2.504 4.814 4.407 1.19 1.903 1.76 3.956 1.76 6.26 0 2.303-.57 4.407-1.76 6.26-1.19 1.853-2.743 3.305-4.814 4.407-2.018 1.052-4.295 1.602-6.832 1.602-2.536 0-4.865-.55-6.883-1.602zm10.766-4.057c1.19-.65 2.07-1.552 2.743-2.704.673-1.152.984-2.454.984-3.906 0-1.453-.31-2.755-.984-3.907a7.363 7.363 0 0 0-2.743-2.704c-1.19-.651-2.484-.951-3.933-.951-1.45 0-2.744.3-3.934.951s-2.07 1.553-2.743 2.704c-.673 1.152-.983 2.454-.983 3.907 0 1.452.31 2.754.983 3.906a7.364 7.364 0 0 0 2.743 2.704c1.19.651 2.484.952 3.934.952 1.5 0 2.794-.3 3.933-.952z" fill="#014651"/><path d="M97.314 8.39l-8.488 19.331c-.88 2.104-1.915 3.556-3.21 4.458-1.293.851-2.794 1.302-4.606 1.302-.983 0-1.967-.15-2.898-.451-.932-.3-1.76-.701-2.33-1.202l2.02-3.756c.413.35.88.651 1.448.851.57.2 1.087.3 1.605.3.725 0 1.346-.15 1.811-.5.466-.35.88-.951 1.243-1.753l.051-.15-8.125-18.33h5.641l5.28 12.22 5.33-12.37h5.228v.05zm2.587 17.88c-1.5-.351-2.691-.852-3.57-1.403l1.81-3.806c.829.5 1.864.951 3.054 1.252 1.191.35 2.329.5 3.52.5 2.329 0 3.468-.55 3.468-1.652 0-.5-.311-.901-.932-1.102-.621-.2-1.605-.4-2.899-.55a24.769 24.769 0 0 1-3.83-.802c-.983-.3-1.863-.801-2.587-1.552-.725-.752-1.087-1.803-1.087-3.206 0-1.151.362-2.153 1.035-3.054.673-.902 1.708-1.603 3.002-2.104 1.294-.5 2.898-.751 4.658-.751 1.346 0 2.64.15 3.985.4 1.294.301 2.433.652 3.261 1.153l-1.812 3.756c-1.656-.902-3.467-1.353-5.434-1.353-1.191 0-2.019.15-2.64.451-.569.3-.88.701-.88 1.202 0 .55.311.952.932 1.202s1.656.45 3.002.651c1.553.25 2.795.5 3.778.801.984.3 1.812.802 2.536 1.553.725.751 1.087 1.803 1.087 3.105a4.722 4.722 0 0 1-1.035 3.005c-.724.901-1.708 1.552-3.054 2.053-1.345.5-2.95.751-4.761.751-1.605.1-3.106-.1-4.607-.5zm28.001-.552c-.517.4-1.19.651-1.967.852-.776.2-1.604.3-2.484.3-2.225 0-3.985-.55-5.176-1.653-1.242-1.101-1.811-2.754-1.811-4.857v-7.462h-2.899V8.84h2.899V4.384h5.434V8.84h4.71v4.057h-4.71v7.411c0 .752.207 1.353.621 1.753.415.4.984.601 1.708.601.88 0 1.605-.2 2.226-.701l1.449 3.756zm19.72-6.761h-14.233c.258 1.152.88 2.003 1.811 2.655.932.65 2.122 1.001 3.571 1.001.984 0 1.864-.15 2.588-.4.777-.3 1.45-.752 2.122-1.353l2.899 3.055c-1.76 1.953-4.348 2.955-7.764 2.955-2.122 0-3.985-.4-5.641-1.202-1.657-.801-2.899-1.903-3.779-3.355-.88-1.402-1.345-3.055-1.345-4.858 0-1.803.414-3.406 1.294-4.808.879-1.452 2.07-2.554 3.623-3.355 1.552-.802 3.26-1.202 5.124-1.202 1.863 0 3.519.4 5.02 1.152 1.501.75 2.64 1.853 3.52 3.305.828 1.452 1.293 3.105 1.293 5.008 0 .05 0 .55-.103 1.402zm-12.732-5.86c-.829.702-1.346 1.604-1.553 2.755h9.264c-.207-1.152-.724-2.053-1.552-2.754-.828-.701-1.864-1.052-3.054-1.052-1.242.05-2.277.4-3.105 1.052zm22.877-4.306c1.086-.45 2.38-.701 3.83-.701v4.858c-.621-.05-1.036-.05-1.243-.05-1.552 0-2.794.4-3.674 1.252-.88.85-1.346 2.103-1.346 3.806v8.614h-5.435V8.34h5.228v2.404c.621-.851 1.501-1.502 2.64-1.953zm3.312 17.128c-.673-.652-.984-1.403-.984-2.354 0-.952.311-1.753.984-2.354.672-.601 1.449-.901 2.432-.901.932 0 1.76.3 2.433.901.673.601.983 1.402.983 2.354 0 .951-.31 1.753-.983 2.354-.673.65-1.449.951-2.433.951-.983 0-1.76-.35-2.432-.951z" fill="#014651"/></svg>